#!OML:ASF X:\für Bonn\!DataBase\2005_08_12_Daniel\c3d\Daniel.ASF
:FULLY-SPECIFIED
:DEGREES
31
root 1.14505 16.9475 -0.30115 -349.456 -83.3174 342.357
lowerback 20.0889 -1.09696 5.18249
upperback 3.12277 -0.707368 -2.16824
thorax -7.92719 -0.59444 -5.13207
lowerneck -2.89655 -1.65482 -1.68416
upperneck 1.64314 -2.14032 -0.151226
head 0.998878 -1.08338 0.195377
rclavicle 4.77083e-015 -1.03368e-014
rhumerus -223.721 -218.294 65.8948
rradius 65.0688
rwrist 2.80573
rhand -23.3911 14.263
rfingers 7.12502
rthumb 3.06541 -15.6947
lclavicle 4.77083e-015 -1.03368e-014
lhumerus -221.996 194.695 -78.232
lradius 79.7943
lwrist -5.75746
lhand -5.48577 362.774
lfingers 7.12502
lthumb 20.3266 31.7306
rfemur 3.86184 28.3049 28.2458
rtibia 28.4203
rfoot -56.3257 -28.0153
rtoes -3.85727
lfemur -22.4465 -17.2825 -7.37498
ltibia 38.9677
lfoot -14.9709 -1.57689
ltoes -0.405223
32
root 1.16956 16.9376 -0.325036 -349.121 -83.4092 341.94
lowerback 20.3064 -1.13366 5.35622
upperback 3.24657 -0.712551 -2.11915
thorax -7.90914 -0.600788 -5.17723
lowerneck -3.10626 -1.61065 -1.6162
upperneck 1.51045 -2.07944 -0.232188
head 0.990764 -1.05321 0.159295
rclavicle 1.00386e-014 -9.54166e-015
rhumerus -223.667 -217.876 66.2252
rradius 65.1541
rwrist 3.07951
rhand -23.3573 13.6987
rfingers 7.12502
rthumb 3.09803 -16.2585
lclavicle 1.00386e-014 -9.54166e-015
lhumerus -221.73 194.446 -78.309
lradius 79.6568
lwrist -5.28599
lhand -6.0176 362.829
lfingers 7.12502
lthumb 19.8154 31.8388
rfemur 3.78092 28.84 28.5424
rtibia 28.7375
rfoot -56.8521 -28.1441
rtoes -4.01088
lfemur -22.4183 -16.8334 -7.38071
ltibia 39.4296
lfoot -15.1977 -1.46234
ltoes -0.0023626
33
root 1.19423 16.928 -0.347854 -348.733 -83.4993 341.455
lowerback 20.5614 -1.18055 5.51872
upperback 3.35904 -0.729304 -2.05372
thorax -7.92452 -0.613393 -5.195
lowerneck -3.29357 -1.55593 -1.55486
upperneck 1.37102 -2.00445 -0.356383
head 0.9763 -1.01678 0.111602
rclavicle 4.77083e-015 -2.62396e-014
rhumerus -223.611 -217.396 66.5855
rradius 65.1952
rwrist 3.34165
rhand -23.2911 13.1936
rfingers 7.12502
rthumb 3.16194 -16.7627
lclavicle 4.77083e-015 -2.62396e-014
lhumerus -221.479 194.162 -78.3558
lradius 79.4908
lwrist -4.76543
lhand -6.51694 362.858
lfingers 7.12502
lthumb 19.3354 31.9172
rfemur 3.69437 29.2576 28.8053
rtibia 29.0448
rfoot -57.2589 -28.2058
rtoes -4.15244
lfemur -22.369 -16.3974 -7.38954
ltibia 39.9225
lfoot -15.4123 -1.38357
ltoes 0.388855
34
root 1.21759 16.9191 -0.368685 -348.464 -83.5999 341.085
lowerback 20.8149 -1.21615 5.67538
upperback 3.48346 -0.734733 -2.00771
thorax -7.92405 -0.620169 -5.2337
lowerneck -3.51915 -1.50937 -1.49807
upperneck 1.2203 -1.94091 -0.440453
head 0.965597 -0.985645 0.076564
rclavicle -1.56046e-014 -1.23246e-014
rhumerus -223.47 -216.741 67.0022
rradius 65.2161
rwrist 3.64951
rhand -23.156 12.7687
rfingers 7.12502
rthumb 3.29248 -17.1856
lclavicle -1.56046e-014 -1.23246e-014
lhumerus -221.21 193.944 -78.4076
lradius 79.3199
lwrist -4.14133
lhand -7.00316 362.894
lfingers 7.12502
lthumb 18.8678 31.9988
rfemur 3.60763 29.5847 29.0175
rtibia 29.343
rfoot -57.5525 -28.2912
rtoes -4.37821
lfemur -22.3036 -16.0131 -7.42402
ltibia 40.4309
lfoot -15.6298 -1.3072
ltoes 0.582506
35
root 1.23899 16.9113 -0.388529 -348.116 -83.7232 340.661
lowerback 21.0475 -1.25546 5.80712
upperback 3.59103 -0.749388 -1.95545
thorax -7.93156 -0.630903 -5.24845
lowerneck -3.71247 -1.44942 -1.47377
upperneck 1.08285 -1.85899 -0.526617
head 0.9539 -0.945695 0.0468624
rclavicle -3.08116e-015 -1.59028e-014
rhumerus -223.326 -216.019 67.424
rradius 65.1766
rwrist 4.02284
rhand -23.0428 12.4054
rfingers 7.12502
rthumb 3.4018 -17.5472
lclavicle -3.08116e-015 -1.59028e-014
lhumerus -221 193.686 -78.4559
lradius 79.1651
lwrist -3.45153
lhand -7.5209 362.957
lfingers 7.12502
lthumb 18.3698 32.1093
rfemur 3.46458 29.7817 29.1491
rtibia 29.6271
rfoot -57.672 -28.3213
rtoes -4.6018
lfemur -22.2472 -15.5972 -7.46626
ltibia 40.9498
lfoot -15.8418 -1.25501
ltoes 0.489154
36
root 1.26035 16.9043 -0.407473 -347.716 -83.8509 340.197
lowerback 21.2788 -1.28763 5.94568
upperback 3.69937 -0.754671 -1.92188
thorax -7.93613 -0.637516 -5.29034
lowerneck -3.92615 -1.39185 -1.38825
upperneck 0.941394 -1.78308 -0.619015
head 0.943884 -0.908664 0.00496699
rclavicle -7.65321e-015 1.31198e-014
rhumerus -223.073 -215.168 67.9104
rradius 65.1201
rwrist 4.4031
rhand -22.7662 12.0931
rfingers 7.12502
rthumb 3.66887 -17.8551
lclavicle -7.65321e-015 1.31198e-014
lhumerus -220.81 193.506 -78.5387
lradius 79.0616
lwrist -2.69968
lhand -7.98655 363.042
lfingers 7.12502
lthumb 17.9218 32.2363
rfemur 3.29988 29.9419 29.2529
rtibia 29.8995
rfoot -57.76 -28.2998
rtoes -4.78084
lfemur -22.1936 -15.1747 -7.50292
ltibia 41.4724
lfoot -16.0118 -1.24214
ltoes 0.380229
37
root 1.28027 16.899 -0.425161 -347.138 -83.9774 339.602
lowerback 21.4712 -1.34288 6.01111
upperback 3.78317 -0.803059 -1.85202
thorax -7.95172 -0.662733 -5.23745
lowerneck -4.1138 -1.29268 -1.3325
upperneck 0.787629 -1.65125 -0.730065
head 0.925692 -0.844159 -0.0362731
rclavicle -1.12313e-014 2.22639e-014
rhumerus -222.892 -214.355 68.343
rradius 65.0663
rwrist 4.77193
rhand -22.5083 11.7841
rfingers 7.12502
rthumb 3.91797 -18.1597
lclavicle -1.12313e-014 2.22639e-014
lhumerus -220.682 193.174 -78.6171
lradius 78.9776
lwrist -1.95728
lhand -8.5159 363.064
lfingers 7.12502
lthumb 17.4124 32.3046
rfemur 3.06493 29.9792 29.293
rtibia 30.1531
rfoot -57.6655 -28.3484
rtoes -4.97673
lfemur -22.167 -14.76 -7.52318
ltibia 41.9928
lfoot -16.2035 -1.2367
ltoes 0.174842
38
root 1.29722 16.8937 -0.441134 -346.619 -84.1199 339.086
lowerback 21.6151 -1.40378 5.98193
upperback 3.87637 -0.879994 -1.74525
thorax -7.93339 -0.697421 -5.08036
lowerneck -4.33541 -1.15391 -1.28055
upperneck 0.642303 -1.46562 -0.896245
head 0.9157 -0.753973 -0.0928161
rclavicle 2.21645e-014 -7.55382e-015
rhumerus -222.698 -213.614 68.8182
rradius 64.9859
rwrist 5.12575
rhand -22.1491 11.5271
rfingers 7.12502
rthumb 4.26478 -18.4099
lclavicle 2.21645e-014 -7.55382e-015
lhumerus -220.561 192.756 -78.6843
lradius 78.956
lwrist -1.22143
lhand -9.02108 363.141
lfingers 7.12502
lthumb 16.9261 32.4231
rfemur 2.79256 29.903 29.2549
rtibia 30.3815
rfoot -57.3962 -28.4031
rtoes -5.13642
lfemur -22.1328 -14.371 -7.57171
ltibia 42.504
lfoot -16.4062 -1.21285
ltoes -0.0656439
39
root 1.31029 16.8906 -0.456206 -346.044 -84.2644 338.534
lowerback 21.7156 -1.46634 5.95837
upperback 3.96175 -0.961793 -1.66298
thorax -7.90127 -0.734451 -4.9521
lowerneck -4.51155 -1.01497 -1.22261
upperneck 0.473269 -1.28216 -1.03644
head 0.891147 -0.66428 -0.141899
rclavicle -4.47266e-015 6.75868e-015
rhumerus -222.503 -212.718 69.272
rradius 64.8742
rwrist 5.60242
rhand -21.8193 11.2856
rfingers 7.12502
rthumb 4.58327 -18.6448
lclavicle -4.47266e-015 6.75868e-015
lhumerus -220.51 192.359 -78.7737
lradius 78.9361
lwrist -0.446029
lhand -9.56199 363.148
lfingers 7.12502
lthumb 16.4054 32.4747
rfemur 2.50083 29.747 29.176
rtibia 30.5895
rfoot -57.0625 -28.4269
rtoes -5.28666
lfemur -22.0669 -14.1231 -7.62347
ltibia 42.9941
lfoot -16.6701 -1.12975
ltoes -0.0954746
40
root 1.31985 16.8898 -0.468448 -345.139 -84.4537 337.648
lowerback 21.7544 -1.5097 5.93417
upperback 4.09298 -1.02483 -1.57235
thorax -7.78282 -0.759482 -4.81935
lowerneck -4.76018 -0.872086 -1.19495
upperneck 0.31124 -1.09171 -1.15679
head 0.881848 -0.571436 -0.180082
rclavicle -8.15017e-015 1.82882e-014
rhumerus -222.267 -211.779 69.7849
rradius 64.7928
rwrist 6.17677
rhand -21.4275 11.0277
rfingers 7.12502
rthumb 4.96161 -18.8942
lclavicle -8.15017e-015 1.82882e-014
lhumerus -220.49 192.002 -78.8501
lradius 78.9928
lwrist 0.328844
lhand -10.1484 363.144
lfingers 7.12502
lthumb 15.8408 32.5157
rfemur 2.17906 29.3445 29.0083
rtibia 30.7698
rfoot -56.3735 -28.4161
rtoes -5.39581
lfemur -21.948 -13.873 -7.68019
ltibia 43.4613
lfoot -16.9487 -1.03558
ltoes -0.113722
41
root 1.33036 16.8898 -0.4786 -344.416 -84.6889 336.954
lowerback 21.8202 -1.54158 5.86573
upperback 4.20953 -1.08192 -1.49265
thorax -7.69357 -0.782218 -4.6751
lowerneck -4.96476 -0.723986 -1.19064
upperneck 0.107709 -0.895026 -1.28898
head 0.852392 -0.475462 -0.217336
rclavicle -1.59028e-015 -1.78906e-014
rhumerus -222.08 -210.773 70.2824
rradius 64.6994
rwrist 6.84465
rhand -21.1218 10.7422
rfingers 7.12502
rthumb 5.25676 -19.1726
lclavicle -1.59028e-015 -1.78906e-014
lhumerus -220.629 191.662 -78.8948
lradius 79.1659
lwrist 1.11636
lhand -10.789 363.183
lfingers 7.12502
lthumb 15.2238 32.6032
rfemur 1.81432 28.8269 28.7368
rtibia 30.9364
rfoot -55.5008 -28.4425
rtoes -5.5807
lfemur -21.7941 -13.6558 -7.79744
ltibia 43.8953
lfoot -17.2444 -0.908896
ltoes -0.0255339
